<?xml version="1.0" encoding="utf-8"?>
<!-- Generator: Adobe Illustrator 16.0.0, SVG Export Plug-In . SVG Version: 6.00 Build 0)  -->
<!DOCTYPE svg PUBLIC "-//W3C//DTD SVG 1.1//EN" "http://www.w3.org/Graphics/SVG/1.1/DTD/svg11.dtd">
<svg version="1.1" id="Capa_1" xmlns="http://www.w3.org/2000/svg" xmlns:xlink="http://www.w3.org/1999/xlink" x="0px" y="0px"
	 width="50px" height="50px" viewBox="14.553 8.053 50 50" enable-background="new 14.553 8.053 50 50" xml:space="preserve">
<g>
	<path d="M62.053,43.302c0,1.009-0.283,1.943-0.738,2.767L46.791,29.817l14.367-12.568c0.559,0.886,0.896,1.928,0.896,3.054V43.302
		L62.053,43.302z M39.053,32.768l19.991-17.491c-0.821-0.449-1.744-0.725-2.741-0.725h-34.5c-0.999,0-1.921,0.276-2.739,0.725
		L39.053,32.768z M44.626,31.71l-4.627,4.052c-0.271,0.234-0.608,0.353-0.946,0.353s-0.676-0.118-0.946-0.353l-4.628-4.052
		L18.771,48.167c0.882,0.555,1.915,0.885,3.032,0.885h34.5c1.117,0,2.15-0.33,3.032-0.885L44.626,31.71z M16.948,17.248
		c-0.559,0.887-0.896,1.929-0.896,3.055v23c0,1.009,0.281,1.943,0.738,2.767l14.523-16.254L16.948,17.248z"/>
</g>
</svg>
