<?xml version="1.0" encoding="utf-8"?>
<!-- Generator: Adobe Illustrator 16.0.0, SVG Export Plug-In . SVG Version: 6.00 Build 0)  -->
<!DOCTYPE svg PUBLIC "-//W3C//DTD SVG 1.1//EN" "http://www.w3.org/Graphics/SVG/1.1/DTD/svg11.dtd">
<svg version="1.1" id="Capa_1" xmlns="http://www.w3.org/2000/svg" xmlns:xlink="http://www.w3.org/1999/xlink" x="0px" y="0px"
	 width="50px" height="50px" viewBox="23.062 23.062 50 50" enable-background="new 23.062 23.062 50 50" xml:space="preserve">
<g>
	<path d="M59.81,24.571l-6.095-0.01c-6.848,0-11.272,4.54-11.272,11.567v5.333h-6.128c-0.53,0-0.958,0.429-0.958,0.959v7.727
		c0,0.529,0.429,0.958,0.958,0.958h6.128v19.498c0,0.529,0.429,0.958,0.958,0.958h7.995c0.53,0,0.958-0.43,0.958-0.958V51.105h7.166
		c0.53,0,0.958-0.429,0.958-0.958l0.003-7.727c0-0.254-0.101-0.498-0.279-0.678c-0.181-0.18-0.425-0.281-0.679-0.281h-7.169V36.94
		c0-2.173,0.519-3.276,3.35-3.276l4.105-0.002c0.529,0,0.958-0.429,0.958-0.958V25.53C60.767,25.001,60.338,24.572,59.81,24.571z"/>
</g>
</svg>
