<?xml version="1.0" encoding="utf-8"?>
<!-- Generator: Adobe Illustrator 16.0.0, SVG Export Plug-In . SVG Version: 6.00 Build 0)  -->
<!DOCTYPE svg PUBLIC "-//W3C//DTD SVG 1.1//EN" "http://www.w3.org/Graphics/SVG/1.1/DTD/svg11.dtd">
<svg version="1.1" id="Capa_1" xmlns="http://www.w3.org/2000/svg" xmlns:xlink="http://www.w3.org/1999/xlink" x="0px" y="0px"
	 width="50px" height="50px" viewBox="190.057 190.057 50 50" enable-background="new 190.057 190.057 50 50" xml:space="preserve">
<g>
	<path id="Facebook_Places" d="M230.808,203.003c-0.171-0.64-0.518-1.322-0.774-1.92c-3.071-7.381-9.782-10.026-15.201-10.026
		c-7.254,0-15.244,4.864-16.311,14.89v2.048c0,0.085,0.03,0.854,0.072,1.237c0.598,4.778,4.368,9.856,7.184,14.635
		c3.029,5.119,6.173,10.155,9.287,15.189c1.92-3.285,3.834-6.613,5.71-9.813c0.512-0.939,1.105-1.878,1.617-2.774
		c0.342-0.597,0.993-1.193,1.291-1.749c3.029-5.546,7.905-11.135,7.905-16.639v-2.261
		C231.589,205.223,230.85,203.132,230.808,203.003z M214.966,213.287c-2.132,0-4.466-1.066-5.619-4.011
		c-0.171-0.469-0.158-1.408-0.158-1.494v-1.323c0-3.754,3.188-5.46,5.96-5.46c3.414,0,6.054,2.731,6.054,6.145
		C221.204,210.556,218.379,213.287,214.966,213.287z"/>
</g>
</svg>
