<?xml version="1.0" encoding="utf-8"?>
<!-- Generator: Adobe Illustrator 16.0.0, SVG Export Plug-In . SVG Version: 6.00 Build 0)  -->
<!DOCTYPE svg PUBLIC "-//W3C//DTD SVG 1.1//EN" "http://www.w3.org/Graphics/SVG/1.1/DTD/svg11.dtd">
<svg version="1.1" id="Layer_1" xmlns="http://www.w3.org/2000/svg" xmlns:xlink="http://www.w3.org/1999/xlink" x="0px" y="0px"
	 width="50px" height="50px" viewBox="0 0 50 50" enable-background="new 0 0 50 50" xml:space="preserve">
<path fill-rule="evenodd" clip-rule="evenodd" d="M48.59,42.669L36.097,30.545c2.101-2.997,3.326-6.635,3.326-10.565
	c0-10.218-8.313-18.501-18.563-18.501c-10.256,0-18.566,8.283-18.566,18.501c0,10.211,8.311,18.498,18.566,18.498
	c3.94,0,7.597-1.23,10.605-3.313l0,0l12.494,12.121c0.259,0.25,0.664,0.266,0.929,0.005l3.703-3.707
	C48.85,43.34,48.84,42.908,48.59,42.669 M20.86,33.07c-7.261,0-13.147-5.858-13.147-13.09c0-7.237,5.886-13.102,13.147-13.102
	c7.253,0,13.149,5.865,13.149,13.102C34.009,27.212,28.113,33.07,20.86,33.07"/>
</svg>
