<?xml version="1.0" encoding="utf-8"?>
<!-- Generator: Adobe Illustrator 16.0.0, SVG Export Plug-In . SVG Version: 6.00 Build 0)  -->
<!DOCTYPE svg PUBLIC "-//W3C//DTD SVG 1.1//EN" "http://www.w3.org/Graphics/SVG/1.1/DTD/svg11.dtd">
<svg version="1.1" id="Capa_1" xmlns="http://www.w3.org/2000/svg" xmlns:xlink="http://www.w3.org/1999/xlink" x="0px" y="0px"
	 width="50px" height="50px" viewBox="0 8.5 50 50" enable-background="new 0 8.5 50 50" xml:space="preserve">
<g>
	<g>
		<path fill="#010002" d="M48,19.76c-1.632,0.723-3.382,1.213-5.223,1.431c1.879-1.125,3.316-2.907,3.998-5.027
			c-1.761,1.042-3.706,1.798-5.777,2.208c-1.659-1.771-4.019-2.873-6.635-2.873c-5.023,0-9.094,4.07-9.094,9.089
			c0,0.71,0.08,1.407,0.236,2.071c-7.556-0.378-14.255-3.999-18.739-9.5c-0.783,1.34-1.229,2.902-1.229,4.57
			c0,3.154,1.607,5.938,4.043,7.566c-1.49-0.05-2.892-0.46-4.119-1.141v0.114c0,4.403,3.136,8.077,7.292,8.914
			c-0.761,0.204-1.565,0.317-2.394,0.317c-0.588,0-1.156-0.056-1.712-0.167c1.157,3.613,4.514,6.24,8.491,6.312
			c-3.11,2.438-7.032,3.888-11.292,3.888c-0.733,0-1.456-0.045-2.167-0.127C7.704,49.994,12.48,51.5,17.615,51.5
			c16.724,0,25.866-13.853,25.866-25.866l-0.03-1.178C45.236,23.182,46.782,21.582,48,19.76z"/>
	</g>
</g>
</svg>
